# xmcd CD database file
#
# Track frame offsets:
#	150
#	25456
#	52156
#	69255
#	92747
#	120260
#	148631
#	171571
#	191720
#	233304
#
# Disc length: 3426 seconds
#
# Revision: 0
# Processed by: cddbd v1.5.2PL0 Copyright (c) Steve Scherf et al.
# Submitted via: CDex 1.70beta2
#
DISCID=860d600a
DTITLE=Angel Canales - El San Juan
DYEAR=1976
DGENRE=Salsa
TTITLE0=LA REALIDAD EQ
TTITLE1=CONCIERTO EN BO
TTITLE2=EL  AMARTE A TI
TTITLE3=SANDRA EQ
TTITLE4=DE QUE TE QUEJA
TTITLE5=ANA Y SAOCO EQ
TTITLE6=MI NI￑A BONITA 
TTITLE7=VIEJO CARUZELL 
TTITLE8=ARREPENTIDA EQ
TTITLE9=CHA CHA A LA CA
EXTD=YEAR: 1976
EXTT0=
EXTT1=
EXTT2=
EXTT3=
EXTT4=
EXTT5=
EXTT6=
EXTT7=
EXTT8=
EXTT9=
PLAYORDER=
